<mxfile host="app.diagrams.net" modified="2024-03-25T13:18:05.022Z" agent="Mozilla/5.0 (Windows NT 10.0; Win64; x64) AppleWebKit/537.36 (KHTML, like Gecko) Chrome/122.0.0.0 Safari/537.36 Edg/122.0.0.0" etag="cCR-VXOTV-ROq5hsYjt0" version="24.1.0" type="github">
  <diagram id="6a731a19-8d31-9384-78a2-239565b7b9f0" name="Page-1">
    <mxGraphModel dx="1351" dy="961" grid="1" gridSize="10" guides="1" tooltips="1" connect="1" arrows="1" fold="1" page="1" pageScale="1" pageWidth="1169" pageHeight="827" background="none" math="0" shadow="0">
      <root>
        <mxCell id="0" />
        <mxCell id="1" parent="0" />
        <mxCell id="Czdzf8e4lVpKLZLVUdao-55" value="" style="ellipse;whiteSpace=wrap;html=1;aspect=fixed;fillColor=#050505;strokeWidth=2;fontSize=20;" parent="1" vertex="1">
          <mxGeometry x="20" y="405" width="30" height="30" as="geometry" />
        </mxCell>
        <mxCell id="DPX-u-iokIQotS6Z7NxS-8" style="edgeStyle=orthogonalEdgeStyle;rounded=0;orthogonalLoop=1;jettySize=auto;html=1;exitX=1;exitY=0.5;exitDx=0;exitDy=0;entryX=0;entryY=0.5;entryDx=0;entryDy=0;strokeWidth=2;fontSize=20;" edge="1" parent="1" source="Czdzf8e4lVpKLZLVUdao-56" target="DPX-u-iokIQotS6Z7NxS-1">
          <mxGeometry relative="1" as="geometry" />
        </mxCell>
        <mxCell id="DPX-u-iokIQotS6Z7NxS-15" value="&lt;font style=&quot;font-size: 20px;&quot;&gt;是&lt;/font&gt;" style="edgeLabel;html=1;align=center;verticalAlign=middle;resizable=0;points=[];" vertex="1" connectable="0" parent="DPX-u-iokIQotS6Z7NxS-8">
          <mxGeometry x="-0.0762" y="3" relative="1" as="geometry">
            <mxPoint x="-1" as="offset" />
          </mxGeometry>
        </mxCell>
        <mxCell id="Czdzf8e4lVpKLZLVUdao-56" value="&lt;font style=&quot;font-size: 20px;&quot;&gt;用户是否登录&lt;/font&gt;" style="rhombus;whiteSpace=wrap;html=1;strokeWidth=2;fontSize=20;" parent="1" vertex="1">
          <mxGeometry x="90" y="380" width="260" height="80" as="geometry" />
        </mxCell>
        <mxCell id="Czdzf8e4lVpKLZLVUdao-57" value="" style="group;strokeWidth=2;fontSize=20;" parent="1" vertex="1" connectable="0">
          <mxGeometry x="160" y="510" width="120" height="60" as="geometry" />
        </mxCell>
        <mxCell id="Czdzf8e4lVpKLZLVUdao-58" value="&lt;font style=&quot;font-size: 20px;&quot;&gt;用户登录&lt;/font&gt;" style="rounded=0;whiteSpace=wrap;html=1;strokeWidth=2;fontSize=20;" parent="Czdzf8e4lVpKLZLVUdao-57" vertex="1">
          <mxGeometry width="120" height="60" as="geometry" />
        </mxCell>
        <mxCell id="Czdzf8e4lVpKLZLVUdao-59" value="" style="endArrow=classic;html=1;rounded=0;entryX=0.5;entryY=0;entryDx=0;entryDy=0;strokeWidth=2;fontSize=20;" parent="1" target="Czdzf8e4lVpKLZLVUdao-58" edge="1">
          <mxGeometry width="50" height="50" relative="1" as="geometry">
            <mxPoint x="219.47" y="460" as="sourcePoint" />
            <mxPoint x="559.47" y="620" as="targetPoint" />
          </mxGeometry>
        </mxCell>
        <mxCell id="Czdzf8e4lVpKLZLVUdao-60" value="&lt;font style=&quot;font-size: 20px;&quot;&gt;否&lt;/font&gt;" style="text;html=1;align=center;verticalAlign=middle;whiteSpace=wrap;rounded=0;strokeWidth=2;fontSize=20;" parent="1" vertex="1">
          <mxGeometry x="209.47" y="460" width="60" height="30" as="geometry" />
        </mxCell>
        <mxCell id="Czdzf8e4lVpKLZLVUdao-61" value="" style="endArrow=classic;html=1;rounded=0;exitX=1;exitY=0.5;exitDx=0;exitDy=0;entryX=0;entryY=0.5;entryDx=0;entryDy=0;strokeWidth=2;fontSize=20;" parent="1" source="Czdzf8e4lVpKLZLVUdao-55" target="Czdzf8e4lVpKLZLVUdao-56" edge="1">
          <mxGeometry width="50" height="50" relative="1" as="geometry">
            <mxPoint x="360" y="570" as="sourcePoint" />
            <mxPoint x="410" y="520" as="targetPoint" />
          </mxGeometry>
        </mxCell>
        <mxCell id="DPX-u-iokIQotS6Z7NxS-9" style="edgeStyle=orthogonalEdgeStyle;rounded=0;orthogonalLoop=1;jettySize=auto;html=1;exitX=1;exitY=0.5;exitDx=0;exitDy=0;entryX=0;entryY=0.5;entryDx=0;entryDy=0;strokeWidth=2;fontSize=20;" edge="1" parent="1" source="DPX-u-iokIQotS6Z7NxS-1" target="DPX-u-iokIQotS6Z7NxS-3">
          <mxGeometry relative="1" as="geometry" />
        </mxCell>
        <mxCell id="DPX-u-iokIQotS6Z7NxS-1" value="进入成果库" style="rounded=0;whiteSpace=wrap;html=1;strokeWidth=2;fontSize=20;" vertex="1" parent="1">
          <mxGeometry x="420" y="390" width="120" height="60" as="geometry" />
        </mxCell>
        <mxCell id="DPX-u-iokIQotS6Z7NxS-2" value="展示文献数据信息" style="rounded=0;whiteSpace=wrap;html=1;strokeWidth=2;fontSize=20;" vertex="1" parent="1">
          <mxGeometry x="780" y="390" width="120" height="60" as="geometry" />
        </mxCell>
        <mxCell id="DPX-u-iokIQotS6Z7NxS-10" style="edgeStyle=orthogonalEdgeStyle;rounded=0;orthogonalLoop=1;jettySize=auto;html=1;exitX=1;exitY=0.5;exitDx=0;exitDy=0;entryX=0;entryY=0.5;entryDx=0;entryDy=0;strokeWidth=2;fontSize=20;" edge="1" parent="1" source="DPX-u-iokIQotS6Z7NxS-3" target="DPX-u-iokIQotS6Z7NxS-2">
          <mxGeometry relative="1" as="geometry" />
        </mxCell>
        <mxCell id="DPX-u-iokIQotS6Z7NxS-11" style="edgeStyle=orthogonalEdgeStyle;rounded=0;orthogonalLoop=1;jettySize=auto;html=1;exitX=1;exitY=0.5;exitDx=0;exitDy=0;entryX=0;entryY=0.5;entryDx=0;entryDy=0;strokeWidth=2;fontSize=20;" edge="1" parent="1" source="DPX-u-iokIQotS6Z7NxS-3" target="DPX-u-iokIQotS6Z7NxS-5">
          <mxGeometry relative="1" as="geometry" />
        </mxCell>
        <mxCell id="DPX-u-iokIQotS6Z7NxS-12" style="edgeStyle=orthogonalEdgeStyle;rounded=0;orthogonalLoop=1;jettySize=auto;html=1;exitX=1;exitY=0.5;exitDx=0;exitDy=0;entryX=0;entryY=0.5;entryDx=0;entryDy=0;strokeWidth=2;fontSize=20;" edge="1" parent="1" source="DPX-u-iokIQotS6Z7NxS-3" target="DPX-u-iokIQotS6Z7NxS-7">
          <mxGeometry relative="1" as="geometry" />
        </mxCell>
        <mxCell id="DPX-u-iokIQotS6Z7NxS-13" style="edgeStyle=orthogonalEdgeStyle;rounded=0;orthogonalLoop=1;jettySize=auto;html=1;exitX=1;exitY=0.5;exitDx=0;exitDy=0;entryX=0;entryY=0.5;entryDx=0;entryDy=0;strokeWidth=2;fontSize=20;" edge="1" parent="1" source="DPX-u-iokIQotS6Z7NxS-3" target="DPX-u-iokIQotS6Z7NxS-4">
          <mxGeometry relative="1" as="geometry" />
        </mxCell>
        <mxCell id="DPX-u-iokIQotS6Z7NxS-14" style="edgeStyle=orthogonalEdgeStyle;rounded=0;orthogonalLoop=1;jettySize=auto;html=1;exitX=1;exitY=0.5;exitDx=0;exitDy=0;entryX=0;entryY=0.5;entryDx=0;entryDy=0;strokeWidth=2;fontSize=20;" edge="1" parent="1" source="DPX-u-iokIQotS6Z7NxS-3" target="DPX-u-iokIQotS6Z7NxS-6">
          <mxGeometry relative="1" as="geometry" />
        </mxCell>
        <mxCell id="DPX-u-iokIQotS6Z7NxS-3" value="搜索文献" style="rounded=0;whiteSpace=wrap;html=1;strokeWidth=2;fontSize=20;" vertex="1" parent="1">
          <mxGeometry x="580" y="390" width="120" height="60" as="geometry" />
        </mxCell>
        <mxCell id="DPX-u-iokIQotS6Z7NxS-4" value="文献报告生成" style="rounded=0;whiteSpace=wrap;html=1;strokeWidth=2;fontSize=20;" vertex="1" parent="1">
          <mxGeometry x="780" y="270" width="120" height="60" as="geometry" />
        </mxCell>
        <mxCell id="DPX-u-iokIQotS6Z7NxS-5" value="文献下载" style="rounded=0;whiteSpace=wrap;html=1;strokeWidth=2;fontSize=20;" vertex="1" parent="1">
          <mxGeometry x="780" y="150" width="120" height="60" as="geometry" />
        </mxCell>
        <mxCell id="DPX-u-iokIQotS6Z7NxS-6" value="文献点赞收藏" style="rounded=0;whiteSpace=wrap;html=1;strokeWidth=2;fontSize=20;" vertex="1" parent="1">
          <mxGeometry x="780" y="500" width="120" height="60" as="geometry" />
        </mxCell>
        <mxCell id="DPX-u-iokIQotS6Z7NxS-7" value="文献评论" style="rounded=0;whiteSpace=wrap;html=1;strokeWidth=2;fontSize=20;" vertex="1" parent="1">
          <mxGeometry x="780" y="600" width="120" height="60" as="geometry" />
        </mxCell>
      </root>
    </mxGraphModel>
  </diagram>
</mxfile>
